{"asset":{"generator":"Khronos glTF Blender I/O v1.7.33","version":"2.0","extras":{"origin":"https://polyhaven.com/a/fern_02","license":"CC0-1.0","originalBufferSha256":"fe1abb762bcbbc7ad9e86925c8080437a62add257d9280e9142fdc85c226e64c","preparation":"MeshoptSimplifier with normals/UV preservation; original geometry proportions and materials retained","trianglesBefore":6232,"trianglesAfter":6232}},"scene":0,"scenes":[{"name":"Scene","nodes":[0,1,2,3]}],"nodes":[{"mesh":0,"name":"fern_02_b"},{"mesh":1,"name":"fern_02_c","translation":[1.0000009536743164,0,0]},{"mesh":2,"name":"fern_02_a","translation":[0,0,1.0000001192092896]},{"mesh":3,"name":"fern_02_d","translation":[1,0,0.9999995827674866]}],"materials":[{"alphaCutoff":0.5,"alphaMode":"MASK","doubleSided":true,"name":"fern_02","normalTexture":{"index":0},"pbrMetallicRoughness":{"baseColorTexture":{"index":1},"metallicFactor":0,"metallicRoughnessTexture":{"index":2}}}],"meshes":[{"name":"Plane.024","primitives":[{"attributes":{"POSITION":0,"NORMAL":1,"TEXCOORD_0":2},"indices":3,"material":0}]},{"name":"Plane.044","primitives":[{"attributes":{"POSITION":4,"NORMAL":5,"TEXCOORD_0":6},"indices":7,"material":0}]},{"name":"Plane.006","primitives":[{"attributes":{"POSITION":8,"NORMAL":9,"TEXCOORD_0":10},"indices":11,"material":0}]},{"name":"Plane.059","primitives":[{"attributes":{"POSITION":12,"NORMAL":13,"TEXCOORD_0":14},"indices":15,"material":0}]}],"textures":[{"sampler":0,"source":0},{"sampler":0,"source":1},{"sampler":0,"source":2}],"images":[{"mimeType":"image/jpeg","name":"fern_02_nor_gl","uri":"textures/fern_02_nor_gl_1k.jpg"},{"mimeType":"image/jpeg","name":"fern_02_diff-fern_02_alpha","uri":"textures/fern_02_diff_1k.jpg"},{"mimeType":"image/jpeg","name":"fern_02_rough","uri":"textures/fern_02_arm_1k.jpg"}],"accessors":[{"bufferView":0,"componentType":5126,"count":1660,"type":"VEC3","min":[-0.5281425714492798,-0.030510280281305313,-0.421874463558197],"max":[0.4616048336029053,0.39718443155288696,0.4718152582645416]},{"bufferView":1,"componentType":5126,"count":1660,"type":"VEC3","min":[-0.9980468153953552,-0.9983214735984802,-0.9888912439346313],"max":[0.9977416396141052,0.999603271484375,0.9927060604095459]},{"bufferView":2,"componentType":5126,"count":1660,"type":"VEC2"},{"bufferView":3,"componentType":5125,"count":7152,"type":"SCALAR"},{"bufferView":4,"componentType":5126,"count":1568,"type":"VEC3","min":[-0.4299395680427551,-0.028773672878742218,-0.4172818064689636],"max":[0.44438624382019043,0.32024669647216797,0.34794387221336365]},{"bufferView":5,"componentType":5126,"count":1568,"type":"VEC3","min":[-0.9708243012428284,-0.9889217615127563,-0.999176025390625],"max":[0.9938352704048157,0.99993896484375,0.9985961318016052]},{"bufferView":6,"componentType":5126,"count":1568,"type":"VEC2"},{"bufferView":7,"componentType":5125,"count":6744,"type":"SCALAR"},{"bufferView":8,"componentType":5126,"count":544,"type":"VEC3","min":[-0.2976571321487427,-0.028773518279194832,-0.31126806139945984],"max":[0.25428348779678345,0.2580300271511078,0.3021530210971832]},{"bufferView":9,"componentType":5126,"count":544,"type":"VEC3","min":[-0.9779961705207825,-0.4265266954898834,-0.870082676410675],"max":[0.9978942275047302,0.999420166015625,0.9880977869033813]},{"bufferView":10,"componentType":5126,"count":544,"type":"VEC2"},{"bufferView":11,"componentType":5125,"count":2352,"type":"SCALAR"},{"bufferView":12,"componentType":5126,"count":565,"type":"VEC3","min":[-0.2907802164554596,-0.013578944839537144,-0.35213664174079895],"max":[0.28200197219848633,0.19950860738754272,0.2411416471004486]},{"bufferView":13,"componentType":5126,"count":565,"type":"VEC3","min":[-0.9371318817138672,-0.43366801738739014,-0.9633777737617493],"max":[0.999176025390625,0.99945068359375,0.9968260526657104]},{"bufferView":14,"componentType":5126,"count":565,"type":"VEC2"},{"bufferView":15,"componentType":5125,"count":2448,"type":"SCALAR"}],"bufferViews":[{"buffer":0,"byteOffset":0,"byteLength":19920},{"buffer":0,"byteOffset":19920,"byteLength":19920},{"buffer":0,"byteOffset":39840,"byteLength":13280},{"buffer":0,"byteOffset":53120,"byteLength":28608},{"buffer":0,"byteOffset":81728,"byteLength":18816},{"buffer":0,"byteOffset":100544,"byteLength":18816},{"buffer":0,"byteOffset":119360,"byteLength":12544},{"buffer":0,"byteOffset":131904,"byteLength":26976},{"buffer":0,"byteOffset":158880,"byteLength":6528},{"buffer":0,"byteOffset":165408,"byteLength":6528},{"buffer":0,"byteOffset":171936,"byteLength":4352},{"buffer":0,"byteOffset":176288,"byteLength":9408},{"buffer":0,"byteOffset":185696,"byteLength":6780},{"buffer":0,"byteOffset":192476,"byteLength":6780},{"buffer":0,"byteOffset":199256,"byteLength":4520},{"buffer":0,"byteOffset":203776,"byteLength":9792}],"samplers":[{"magFilter":9729,"minFilter":9987}],"buffers":[{"uri":"model.bin","byteLength":213568}]}