{"asset":{"generator":"Khronos glTF Blender I/O v4.4.56","version":"2.0","extras":{"origin":"https://polyhaven.com/a/tree_small_02","license":"CC0-1.0","originalBufferSha256":"8da6c3c389ad8748286d1b7488cd827f75ebdad9d8f59ef7dfb0916df5edc634","preparation":"MeshoptSimplifier with normals/UV preservation; original geometry proportions and materials retained","trianglesBefore":2062487,"trianglesAfter":1334988}},"extensionsUsed":["KHR_texture_transform","KHR_mesh_quantization"],"extensionsRequired":["KHR_mesh_quantization"],"scene":0,"scenes":[{"name":"Scene","nodes":[0]}],"nodes":[{"mesh":0,"name":"tree_small_02_LOD0","translation":[-1.3089934587478638,-0.02410384640097618,-1.3826267719268799],"scale":[2.916700005531311,4.556740965694189,4.292477130889893]}],"materials":[{"doubleSided":true,"name":"tree_small_02_branches","normalTexture":{"extensions":{"KHR_texture_transform":{"offset":[0,0.40000009536743164],"scale":[3,0.5999999046325684]}},"index":0,"texCoord":1},"pbrMetallicRoughness":{"baseColorTexture":{"extensions":{"KHR_texture_transform":{"offset":[0,0.40000009536743164],"scale":[3,0.5999999046325684]}},"index":1,"texCoord":1},"metallicFactor":0,"metallicRoughnessTexture":{"extensions":{"KHR_texture_transform":{"offset":[0,0.40000009536743164],"scale":[3,0.5999999046325684]}},"index":2,"texCoord":1}}},{"alphaMode":"BLEND","doubleSided":true,"name":"tree_small_02_leaves","normalTexture":{"index":3},"pbrMetallicRoughness":{"baseColorTexture":{"index":4},"metallicFactor":0,"metallicRoughnessTexture":{"index":5}}},{"doubleSided":true,"name":"tree_small_02_trunk","normalTexture":{"index":6},"pbrMetallicRoughness":{"baseColorTexture":{"index":7},"metallicFactor":0,"metallicRoughnessTexture":{"index":8}}}],"meshes":[{"name":"BezierCurve.002","primitives":[{"attributes":{"POSITION":0,"NORMAL":1,"TEXCOORD_0":2,"TEXCOORD_1":3},"indices":4,"material":0},{"attributes":{"POSITION":5,"NORMAL":6,"TEXCOORD_0":7,"TEXCOORD_1":8},"indices":9,"material":1},{"attributes":{"POSITION":10,"NORMAL":11,"TEXCOORD_0":12,"TEXCOORD_1":13},"indices":14,"material":2}]}],"textures":[{"sampler":0,"source":0},{"sampler":0,"source":1},{"sampler":0,"source":2},{"sampler":0,"source":3},{"sampler":0,"source":4},{"sampler":0,"source":5},{"sampler":0,"source":6},{"sampler":0,"source":7},{"sampler":0,"source":8}],"images":[{"mimeType":"image/jpeg","name":"tree_small_02_branch_nor_gl","uri":"textures/tree_small_02_branch_nor_gl_1k.jpg"},{"mimeType":"image/jpeg","name":"tree_small_02_branch_diff","uri":"textures/tree_small_02_branch_diff_1k.jpg"},{"mimeType":"image/jpeg","name":"tree_small_02_branch_rough","uri":"textures/tree_small_02_branch_arm_1k.jpg"},{"mimeType":"image/jpeg","name":"tree_small_02_leaves_nor_gl","uri":"textures/tree_small_02_leaves_nor_gl_1k.jpg"},{"mimeType":"image/jpeg","name":"tree_small_02_leaves_diff-tree_small_02_leaves_alpha","uri":"textures/tree_small_02_leaves_diff_1k.jpg"},{"mimeType":"image/jpeg","name":"tree_small_02_leaves_rough","uri":"textures/tree_small_02_leaves_arm_1k.jpg"},{"mimeType":"image/jpeg","name":"tree_small_02_nor_gl","uri":"textures/tree_small_02_nor_gl_1k.jpg"},{"mimeType":"image/jpeg","name":"tree_small_02_diff","uri":"textures/tree_small_02_diff_1k.jpg"},{"mimeType":"image/jpeg","name":"tree_small_02_rough","uri":"textures/tree_small_02_arm_1k.jpg"}],"accessors":[{"bufferView":0,"componentType":5123,"count":13907,"type":"VEC3","normalized":true,"min":[4807,24438,1825],"max":[61285,63520,63099]},{"bufferView":1,"componentType":5122,"count":13907,"type":"VEC3","normalized":true,"min":[-32715,-32694,-32758],"max":[32725,32759,32767]},{"bufferView":2,"componentType":5123,"count":13907,"type":"VEC2","normalized":true},{"bufferView":3,"componentType":5123,"count":13907,"type":"VEC2","normalized":true},{"bufferView":4,"componentType":5125,"count":47460,"type":"SCALAR"},{"bufferView":5,"componentType":5123,"count":1365276,"type":"VEC3","normalized":true,"min":[0,21321,0],"max":[65535,65535,65535]},{"bufferView":6,"componentType":5122,"count":1365276,"type":"VEC3","normalized":true,"min":[-32766,-32762,-32767],"max":[32767,32767,32767]},{"bufferView":7,"componentType":5123,"count":1365276,"type":"VEC2","normalized":true},{"bufferView":8,"componentType":5123,"count":1365276,"type":"VEC2","normalized":true},{"bufferView":9,"componentType":5125,"count":3909504,"type":"SCALAR"},{"bufferView":10,"componentType":5123,"count":9530,"type":"VEC3","normalized":true,"min":[12213,1,15105],"max":[50315,53051,50471]},{"bufferView":11,"componentType":5122,"count":9530,"type":"VEC3","normalized":true,"min":[-32765,-32698,-32765],"max":[32766,32764,32758]},{"bufferView":12,"componentType":5123,"count":9530,"type":"VEC2","normalized":true},{"bufferView":13,"componentType":5123,"count":9530,"type":"VEC2","normalized":true},{"bufferView":14,"componentType":5125,"count":48000,"type":"SCALAR"}],"bufferViews":[{"buffer":0,"byteOffset":0,"byteLength":83442},{"buffer":0,"byteOffset":83444,"byteLength":83442},{"buffer":0,"byteOffset":166888,"byteLength":55628},{"buffer":0,"byteOffset":222516,"byteLength":55628},{"buffer":0,"byteOffset":278144,"byteLength":189840},{"buffer":0,"byteOffset":467984,"byteLength":8191656},{"buffer":0,"byteOffset":8659640,"byteLength":8191656},{"buffer":0,"byteOffset":16851296,"byteLength":5461104},{"buffer":0,"byteOffset":22312400,"byteLength":5461104},{"buffer":0,"byteOffset":27773504,"byteLength":15638016},{"buffer":0,"byteOffset":43411520,"byteLength":57180},{"buffer":0,"byteOffset":43468700,"byteLength":57180},{"buffer":0,"byteOffset":43525880,"byteLength":38120},{"buffer":0,"byteOffset":43564000,"byteLength":38120},{"buffer":0,"byteOffset":43602120,"byteLength":192000}],"samplers":[{"magFilter":9729,"minFilter":9987}],"buffers":[{"uri":"model.bin","byteLength":43794120}]}