{"asset":{"generator":"Khronos glTF Blender I/O v4.1.63","version":"2.0","extras":{"origin":"https://polyhaven.com/a/chinese_tea_table","license":"CC0-1.0","originalBufferSha256":"e584dbcf8d654c662ef849ef6111b11dc9f87e9a7ea8dc98c7d32dbfe10b7e52","preparation":"Original topology, UVs, normal and ARM maps retained; offline URI rewrite only"}},"scene":0,"scenes":[{"name":"Scene","nodes":[0]}],"nodes":[{"mesh":0,"name":"chinese_tea_table"}],"materials":[{"doubleSided":true,"name":"chinese_tea_table","normalTexture":{"index":0},"pbrMetallicRoughness":{"baseColorTexture":{"index":1},"metallicFactor":0,"metallicRoughnessTexture":{"index":2}}}],"meshes":[{"name":"Plane.003","primitives":[{"attributes":{"POSITION":0,"NORMAL":1,"TEXCOORD_0":2},"indices":3,"material":0}]}],"textures":[{"sampler":0,"source":0},{"sampler":0,"source":1},{"sampler":0,"source":2}],"images":[{"mimeType":"image/jpeg","name":"chinese_tea_table_nor_gl","uri":"textures/chinese_tea_table_nor_gl_2k.jpg"},{"mimeType":"image/jpeg","name":"chinese_tea_table_diff","uri":"textures/chinese_tea_table_diff_2k.jpg"},{"mimeType":"image/jpeg","name":"chinese_tea_table_rough","uri":"textures/chinese_tea_table_arm_2k.jpg"}],"accessors":[{"bufferView":0,"componentType":5126,"count":1992,"max":[0.4197671413421631,0.4986410439014435,0.4171915352344513],"min":[-0.4215477406978607,0,-0.4184304475784302],"type":"VEC3"},{"bufferView":1,"componentType":5126,"count":1992,"type":"VEC3"},{"bufferView":2,"componentType":5126,"count":1992,"type":"VEC2"},{"bufferView":3,"componentType":5123,"count":7524,"type":"SCALAR"}],"bufferViews":[{"buffer":0,"byteLength":23904,"byteOffset":0,"target":34962},{"buffer":0,"byteLength":23904,"byteOffset":23904,"target":34962},{"buffer":0,"byteLength":15936,"byteOffset":47808,"target":34962},{"buffer":0,"byteLength":15048,"byteOffset":63744,"target":34963}],"samplers":[{"magFilter":9729,"minFilter":9987}],"buffers":[{"byteLength":78792,"uri":"model.bin"}]}
